<?xml version="1.0" standalone="no"?><!DOCTYPE svg PUBLIC "-//W3C//DTD SVG 1.1//EN" "http://www.w3.org/Graphics/SVG/1.1/DTD/svg11.dtd"><svg t="1577327473586" class="icon" viewBox="0 0 1024 1024" version="1.1" xmlns="http://www.w3.org/2000/svg" p-id="1620" xmlns:xlink="http://www.w3.org/1999/xlink" width="48" height="48"><defs><style type="text/css"></style></defs><path d="M897.568 768 800 768l0-93.824c0-17.696-14.304-32-32-32s-32 14.304-32 32L736 768l-94.688 0c-17.696 0-32 14.304-32 32s14.304 32 32 32L736 832l0 98.432c0 17.696 14.304 32 32 32s32-14.304 32-32L800 832l97.568 0c17.696 0 32-14.304 32-32S915.264 768 897.568 768zM468 963.424c-86.976 0-370.72-11.968-370.72-166.176 0-85.472 127.424-133.664 256.032-152.032l0-37.664c-84.672-81.216-93.792-189.088-95.488-284.544 0-158.496 86.144-256.608 224.832-256.608 147.744 0 222.656 86.144 222.656 256.032 0 79.36-31.648 146.432-64.096 208.288l-31.904 66.016 0 77.696c0 17.696-14.304 32-32 32s-32-14.304-32-32L545.312 589.44c0-4.8 1.088-9.6 3.2-13.952l35.552-73.536c30.4-57.984 57.248-114.624 57.248-179.488 0-134.592-47.424-192.032-158.656-192.032-145.184 0-160.832 134.304-160.832 192.032 1.952 108.672 16.736 188.16 84.448 246.784 7.008 6.048 11.04 14.912 11.04 24.192l0 80c0 16.32-12.288 30.016-28.512 31.808-136.096 14.88-227.52 59.584-227.52 92 0 74.976 183.424 102.176 306.72 102.176 62.368 0 167.84-14.56 168.896-14.688 17.472-2.56 33.664 9.792 36.096 27.296s-9.792 33.664-27.296 36.096C641.216 948.736 534.816 963.424 468 963.424z" p-id="1621"></path></svg>